<?xml version="1.0" encoding="UTF-8" standalone="no"?>
<!DOCTYPE svg PUBLIC "-//W3C//DTD SVG 1.1//EN"
 "http://www.w3.org/Graphics/SVG/1.1/DTD/svg11.dtd">
<!-- Generated by graphviz version 2.38.0 (20140413.2041)
 -->
<!-- Title: G Pages: 1 -->
<svg width="848pt" height="188pt"
 viewBox="0.00 0.00 847.84 188.00" xmlns="http://www.w3.org/2000/svg" xmlns:xlink="http://www.w3.org/1999/xlink">
<g id="graph0" class="graph" transform="scale(1 1) rotate(0) translate(4 184)">
<title>G</title>
<polygon fill="white" stroke="none" points="-4,4 -4,-184 843.838,-184 843.838,4 -4,4"/>
<!-- SimpleChatMessages -->
<g id="node1" class="node"><title>SimpleChatMessages</title>
<ellipse fill="none" stroke="black" cx="170.293" cy="-162" rx="87.1846" ry="18"/>
<text text-anchor="middle" x="170.293" y="-158.3" font-family="Times,serif" font-size="14.00">SimpleChatMessages</text>
</g>
<!-- GuessANumber -->
<g id="node2" class="node"><title>GuessANumber</title>
<ellipse fill="none" stroke="black" cx="170.293" cy="-90" rx="67.6881" ry="18"/>
<text text-anchor="middle" x="170.293" y="-86.3" font-family="Times,serif" font-size="14.00">GuessANumber</text>
</g>
<!-- SimpleChatMessages&#45;&gt;GuessANumber -->
<g id="edge1" class="edge"><title>SimpleChatMessages&#45;&gt;GuessANumber</title>
<path fill="none" stroke="black" d="M170.293,-143.697C170.293,-135.983 170.293,-126.712 170.293,-118.112"/>
<polygon fill="black" stroke="black" points="173.793,-118.104 170.293,-108.104 166.793,-118.104 173.793,-118.104"/>
</g>
<!-- ServerPerformance -->
<g id="node3" class="node"><title>ServerPerformance</title>
<ellipse fill="none" stroke="black" cx="79.293" cy="-18" rx="79.0865" ry="18"/>
<text text-anchor="middle" x="79.293" y="-14.3" font-family="Times,serif" font-size="14.00">ServerPerformance</text>
</g>
<!-- GuessANumber&#45;&gt;ServerPerformance -->
<g id="edge2" class="edge"><title>GuessANumber&#45;&gt;ServerPerformance</title>
<path fill="none" stroke="black" d="M149.187,-72.7646C137.214,-63.5543 122.04,-51.8825 108.893,-41.7691"/>
<polygon fill="black" stroke="black" points="110.66,-38.7127 100.6,-35.3898 106.392,-44.2611 110.66,-38.7127"/>
</g>
<!-- XmppDeviceControl -->
<g id="node12" class="node"><title>XmppDeviceControl</title>
<ellipse fill="none" stroke="black" cx="261.293" cy="-18" rx="85.2851" ry="18"/>
<text text-anchor="middle" x="261.293" y="-14.3" font-family="Times,serif" font-size="14.00">XmppDeviceControl</text>
</g>
<!-- GuessANumber&#45;&gt;XmppDeviceControl -->
<g id="edge8" class="edge"><title>GuessANumber&#45;&gt;XmppDeviceControl</title>
<path fill="none" stroke="black" d="M191.399,-72.7646C203.286,-63.6205 218.328,-52.0503 231.409,-41.9876"/>
<polygon fill="black" stroke="black" points="233.877,-44.5047 239.67,-35.6334 229.609,-38.9564 233.877,-44.5047"/>
</g>
<!-- XmlMessages -->
<g id="node4" class="node"><title>XmlMessages</title>
<ellipse fill="none" stroke="black" cx="390.293" cy="-162" rx="61.99" ry="18"/>
<text text-anchor="middle" x="390.293" y="-158.3" font-family="Times,serif" font-size="14.00">XmlMessages</text>
</g>
<!-- Federation -->
<g id="node5" class="node"><title>Federation</title>
<ellipse fill="none" stroke="black" cx="304.293" cy="-90" rx="48.1917" ry="18"/>
<text text-anchor="middle" x="304.293" y="-86.3" font-family="Times,serif" font-size="14.00">Federation</text>
</g>
<!-- XmlMessages&#45;&gt;Federation -->
<g id="edge3" class="edge"><title>XmlMessages&#45;&gt;Federation</title>
<path fill="none" stroke="black" d="M370.347,-144.765C358.787,-135.355 344.071,-123.378 331.465,-113.117"/>
<polygon fill="black" stroke="black" points="333.505,-110.264 323.539,-106.666 329.086,-115.693 333.505,-110.264"/>
</g>
<!-- RequestResponse -->
<g id="node6" class="node"><title>RequestResponse</title>
<ellipse fill="none" stroke="black" cx="443.293" cy="-90" rx="72.5877" ry="18"/>
<text text-anchor="middle" x="443.293" y="-86.3" font-family="Times,serif" font-size="14.00">RequestResponse</text>
</g>
<!-- XmlMessages&#45;&gt;RequestResponse -->
<g id="edge4" class="edge"><title>XmlMessages&#45;&gt;RequestResponse</title>
<path fill="none" stroke="black" d="M403.123,-144.055C409.503,-135.629 417.338,-125.28 424.39,-115.966"/>
<polygon fill="black" stroke="black" points="427.335,-117.874 430.581,-107.789 421.754,-113.649 427.335,-117.874"/>
</g>
<!-- Protocols -->
<g id="node7" class="node"><title>Protocols</title>
<ellipse fill="none" stroke="black" cx="664.293" cy="-162" rx="44.393" ry="18"/>
<text text-anchor="middle" x="664.293" y="-158.3" font-family="Times,serif" font-size="14.00">Protocols</text>
</g>
<!-- BreakingPoint -->
<g id="node8" class="node"><title>BreakingPoint</title>
<ellipse fill="none" stroke="black" cx="596.293" cy="-90" rx="61.99" ry="18"/>
<text text-anchor="middle" x="596.293" y="-86.3" font-family="Times,serif" font-size="14.00">BreakingPoint</text>
</g>
<!-- Protocols&#45;&gt;BreakingPoint -->
<g id="edge5" class="edge"><title>Protocols&#45;&gt;BreakingPoint</title>
<path fill="none" stroke="black" d="M648.863,-145.116C640.244,-136.244 629.33,-125.009 619.682,-115.077"/>
<polygon fill="black" stroke="black" points="622.089,-112.531 612.61,-107.797 617.068,-117.409 622.089,-112.531"/>
</g>
<!-- ContentType -->
<g id="node10" class="node"><title>ContentType</title>
<ellipse fill="none" stroke="black" cx="732.293" cy="-90" rx="56.59" ry="18"/>
<text text-anchor="middle" x="732.293" y="-86.3" font-family="Times,serif" font-size="14.00">ContentType</text>
</g>
<!-- Protocols&#45;&gt;ContentType -->
<g id="edge7" class="edge"><title>Protocols&#45;&gt;ContentType</title>
<path fill="none" stroke="black" d="M679.723,-145.116C688.466,-136.116 699.573,-124.682 709.322,-114.646"/>
<polygon fill="black" stroke="black" points="711.994,-116.919 716.452,-107.307 706.974,-112.041 711.994,-116.919"/>
</g>
<!-- HighLoad -->
<g id="node9" class="node"><title>HighLoad</title>
<ellipse fill="none" stroke="black" cx="596.293" cy="-18" rx="46.2923" ry="18"/>
<text text-anchor="middle" x="596.293" y="-14.3" font-family="Times,serif" font-size="14.00">HighLoad</text>
</g>
<!-- BreakingPoint&#45;&gt;HighLoad -->
<g id="edge6" class="edge"><title>BreakingPoint&#45;&gt;HighLoad</title>
<path fill="none" stroke="black" d="M596.293,-71.6966C596.293,-63.9827 596.293,-54.7125 596.293,-46.1124"/>
<polygon fill="black" stroke="black" points="599.793,-46.1043 596.293,-36.1043 592.793,-46.1044 599.793,-46.1043"/>
</g>
<!-- Distributions -->
<g id="node11" class="node"><title>Distributions</title>
<ellipse fill="none" stroke="black" cx="783.293" cy="-162" rx="56.59" ry="18"/>
<text text-anchor="middle" x="783.293" y="-158.3" font-family="Times,serif" font-size="14.00">Distributions</text>
</g>
</g>
</svg>
