<?xml version="1.0" encoding="UTF-8" standalone="no"?>
<!DOCTYPE svg PUBLIC "-//W3C//DTD SVG 1.1//EN"
 "http://www.w3.org/Graphics/SVG/1.1/DTD/svg11.dtd">
<!-- Generated by graphviz version 2.38.0 (20140413.2041)
 -->
<!-- Title: G Pages: 1 -->
<svg width="781pt" height="188pt"
 viewBox="0.00 0.00 780.59 188.00" xmlns="http://www.w3.org/2000/svg" xmlns:xlink="http://www.w3.org/1999/xlink">
<g id="graph0" class="graph" transform="scale(1 1) rotate(0) translate(4 184)">
<title>G</title>
<polygon fill="white" stroke="none" points="-4,4 -4,-184 776.587,-184 776.587,4 -4,4"/>
<!-- SimpleChatMessages -->
<g id="node1" class="node"><title>SimpleChatMessages</title>
<ellipse fill="none" stroke="black" cx="88.3922" cy="-162" rx="88.2844" ry="18"/>
<text text-anchor="middle" x="88.3922" y="-158.3" font-family="Times New Roman,serif" font-size="14.00">SimpleChatMessages</text>
</g>
<!-- GuessANumber -->
<g id="node2" class="node"><title>GuessANumber</title>
<ellipse fill="none" stroke="black" cx="88.3922" cy="-90" rx="69.5877" ry="18"/>
<text text-anchor="middle" x="88.3922" y="-86.3" font-family="Times New Roman,serif" font-size="14.00">GuessANumber</text>
</g>
<!-- SimpleChatMessages&#45;&gt;GuessANumber -->
<g id="edge1" class="edge"><title>SimpleChatMessages&#45;&gt;GuessANumber</title>
<path fill="none" stroke="black" d="M88.3922,-143.697C88.3922,-135.983 88.3922,-126.712 88.3922,-118.112"/>
<polygon fill="black" stroke="black" points="91.8923,-118.104 88.3922,-108.104 84.8923,-118.104 91.8923,-118.104"/>
</g>
<!-- ServerPerformance -->
<g id="node3" class="node"><title>ServerPerformance</title>
<ellipse fill="none" stroke="black" cx="88.3922" cy="-18" rx="80.6858" ry="18"/>
<text text-anchor="middle" x="88.3922" y="-14.3" font-family="Times New Roman,serif" font-size="14.00">ServerPerformance</text>
</g>
<!-- GuessANumber&#45;&gt;ServerPerformance -->
<g id="edge2" class="edge"><title>GuessANumber&#45;&gt;ServerPerformance</title>
<path fill="none" stroke="black" d="M88.3922,-71.6966C88.3922,-63.9827 88.3922,-54.7125 88.3922,-46.1124"/>
<polygon fill="black" stroke="black" points="91.8923,-46.1043 88.3922,-36.1043 84.8923,-46.1044 91.8923,-46.1043"/>
</g>
<!-- XmlMessages -->
<g id="node4" class="node"><title>XmlMessages</title>
<ellipse fill="none" stroke="black" cx="313.392" cy="-162" rx="61.99" ry="18"/>
<text text-anchor="middle" x="313.392" y="-158.3" font-family="Times New Roman,serif" font-size="14.00">XmlMessages</text>
</g>
<!-- Federation -->
<g id="node5" class="node"><title>Federation</title>
<ellipse fill="none" stroke="black" cx="225.392" cy="-90" rx="49.2915" ry="18"/>
<text text-anchor="middle" x="225.392" y="-86.3" font-family="Times New Roman,serif" font-size="14.00">Federation</text>
</g>
<!-- XmlMessages&#45;&gt;Federation -->
<g id="edge3" class="edge"><title>XmlMessages&#45;&gt;Federation</title>
<path fill="none" stroke="black" d="M292.982,-144.765C281.153,-135.355 266.095,-123.378 253.196,-113.117"/>
<polygon fill="black" stroke="black" points="255.091,-110.152 245.086,-106.666 250.733,-115.63 255.091,-110.152"/>
</g>
<!-- RequestResponse -->
<g id="node6" class="node"><title>RequestResponse</title>
<ellipse fill="none" stroke="black" cx="369.392" cy="-90" rx="76.8869" ry="18"/>
<text text-anchor="middle" x="369.392" y="-86.3" font-family="Times New Roman,serif" font-size="14.00">RequestResponse</text>
</g>
<!-- XmlMessages&#45;&gt;RequestResponse -->
<g id="edge4" class="edge"><title>XmlMessages&#45;&gt;RequestResponse</title>
<path fill="none" stroke="black" d="M326.663,-144.411C333.468,-135.906 341.894,-125.372 349.461,-115.914"/>
<polygon fill="black" stroke="black" points="352.313,-117.951 355.827,-107.956 346.847,-113.578 352.313,-117.951"/>
</g>
<!-- Protocols -->
<g id="node7" class="node"><title>Protocols</title>
<ellipse fill="none" stroke="black" cx="594.392" cy="-162" rx="46.2923" ry="18"/>
<text text-anchor="middle" x="594.392" y="-158.3" font-family="Times New Roman,serif" font-size="14.00">Protocols</text>
</g>
<!-- BreakingPoint -->
<g id="node8" class="node"><title>BreakingPoint</title>
<ellipse fill="none" stroke="black" cx="525.392" cy="-90" rx="61.99" ry="18"/>
<text text-anchor="middle" x="525.392" y="-86.3" font-family="Times New Roman,serif" font-size="14.00">BreakingPoint</text>
</g>
<!-- Protocols&#45;&gt;BreakingPoint -->
<g id="edge5" class="edge"><title>Protocols&#45;&gt;BreakingPoint</title>
<path fill="none" stroke="black" d="M578.389,-144.765C569.633,-135.882 558.62,-124.709 548.905,-114.854"/>
<polygon fill="black" stroke="black" points="551.301,-112.298 541.788,-107.633 546.315,-117.212 551.301,-112.298"/>
</g>
<!-- ContentType -->
<g id="node10" class="node"><title>ContentType</title>
<ellipse fill="none" stroke="black" cx="663.392" cy="-90" rx="58.4896" ry="18"/>
<text text-anchor="middle" x="663.392" y="-86.3" font-family="Times New Roman,serif" font-size="14.00">ContentType</text>
</g>
<!-- Protocols&#45;&gt;ContentType -->
<g id="edge7" class="edge"><title>Protocols&#45;&gt;ContentType</title>
<path fill="none" stroke="black" d="M610.396,-144.765C619.152,-135.882 630.164,-124.709 639.879,-114.854"/>
<polygon fill="black" stroke="black" points="642.469,-117.212 646.996,-107.633 637.484,-112.298 642.469,-117.212"/>
</g>
<!-- HighLoad -->
<g id="node9" class="node"><title>HighLoad</title>
<ellipse fill="none" stroke="black" cx="525.392" cy="-18" rx="46.5926" ry="18"/>
<text text-anchor="middle" x="525.392" y="-14.3" font-family="Times New Roman,serif" font-size="14.00">HighLoad</text>
</g>
<!-- BreakingPoint&#45;&gt;HighLoad -->
<g id="edge6" class="edge"><title>BreakingPoint&#45;&gt;HighLoad</title>
<path fill="none" stroke="black" d="M525.392,-71.6966C525.392,-63.9827 525.392,-54.7125 525.392,-46.1124"/>
<polygon fill="black" stroke="black" points="528.892,-46.1043 525.392,-36.1043 521.892,-46.1044 528.892,-46.1043"/>
</g>
<!-- Distributions -->
<g id="node11" class="node"><title>Distributions</title>
<ellipse fill="none" stroke="black" cx="715.392" cy="-162" rx="57.3905" ry="18"/>
<text text-anchor="middle" x="715.392" y="-158.3" font-family="Times New Roman,serif" font-size="14.00">Distributions</text>
</g>
</g>
</svg>
